<?xml version="1.0" encoding="UTF-8"?>
<svg xmlns="http://www.w3.org/2000/svg" viewBox="0 0 191.82 123.73">
  <defs>
    <style>
      .cls-1 {
        fill: #fff;
        stroke: #231f20;
        stroke-miterlimit: 10;
      }
    </style>
  </defs>
  <g id="Layer_3" data-name="Layer 3">
    <path class="cls-1" d="m161.41,77.72v-4.78c0-2.21-1.81-4.02-4.02-4.02h-1.94c-2.21,0-4.02,1.81-4.02,4.02v4.78"/>
  </g>
  <g id="Layer_2" data-name="Layer 2">
    <line class="cls-1" x1="87.68" y1="65.62" x2="100.28" y2="65.62"/>
    <path class="cls-1" d="m100.28,65.62h15.52c1.1,0,2,.9,2,2v7.96c0,1.1-.9,2-2,2h-43.64c-1.1,0-2-.9-2-2v-7.96c0-1.1.9-2,2-2h15.52"/>
    <polyline class="cls-1" points="87.68 66.12 87.68 .5 100.28 .5 100.28 66.12"/>
    <path class="cls-1" d="m169.63,123.23H22.18c-11.93,0-21.68-9.76-21.68-21.68v-1.69c0-11.93,9.76-21.68,21.68-21.68h147.45c11.93,0,21.68,9.76,21.68,21.68v1.69c0,11.93-9.76,21.68-21.68,21.68ZM16.83,106.18v-16.95h-6.89v22.46h15.74v-5.51h-8.85Zm31.72,2.63c1.98-2.15,2.98-5.01,2.98-8.57s-.98-6.2-2.95-8.26c-1.97-2.06-4.52-3.09-7.64-3.09-3.38,0-6.02,1.09-7.92,3.28-1.9,2.19-2.85,4.96-2.85,8.32s1,6.31,2.99,8.41c1.99,2.09,4.56,3.14,7.72,3.14s5.7-1.08,7.68-3.22Zm-10.97-8.14c0-4.45,1.13-6.68,3.39-6.68,2.09,0,3.14,1.95,3.14,5.86,0,2.7-.25,4.55-.77,5.57-.51,1.01-1.35,1.52-2.51,1.52-2.17,0-3.26-2.09-3.26-6.27Zm42.51-11.43l-3.15,12.95-3.33-12.95h-5.41l-3.06,12.93-3.14-12.93h-6.49l5.97,22.46h6.04l2.97-12.39,3.14,12.39h5.79l5.96-22.46h-5.28Zm17.59,17.09v-3.67h8.19v-4.98h-8.19v-3.26h10.13v-5.18h-16.9v22.46h16.9v-5.36h-10.13Zm32.16-4.43c1.6-.76,2.67-1.63,3.19-2.62.53-.99.79-2.14.79-3.43,0-1.99-.72-3.58-2.15-4.8-1.43-1.21-3.44-1.82-6.03-1.82h-11.73v22.46h6.89v-8.59h2.17l3.28,8.59h7.64l-4.06-9.79Zm-9.03-7.9h3.18c1.77,0,2.65.72,2.65,2.16,0,.7-.26,1.23-.79,1.6-.53.36-1.22.54-2.09.54h-2.95v-4.29Zm26.48,12.32v-3.67h8.19v-4.98h-8.19v-3.26h10.13v-5.18h-16.9v22.46h16.9v-5.36h-10.13Zm25.35,5.36c3.21,0,5.83-1.05,7.84-3.15s3.02-4.83,3.02-8.18c0-2.94-.94-5.53-2.81-7.77-1.88-2.24-4.7-3.36-8.47-3.36h-8.69v22.46h9.11Zm-2.22-17.36h1.79c1.32,0,2.32.59,3.02,1.78s1.04,2.59,1.04,4.23c0,1.91-.39,3.42-1.18,4.52-.78,1.11-1.75,1.66-2.89,1.66h-1.79v-12.19Z"/>
    <path class="cls-1" d="m70.67,72.53c-.58.02-1.55.06-2.02-.28l-36.09-26.82c-2.09-1.55-2.45-4.63-.81-6.84h0c1.64-2.21,4.69-2.75,6.78-1.2l36.09,26.82c.52.39,1.07,1.47,1.05,1.92"/>
    <rect class="cls-1" x="44.91" y=".42" width="10.02" height="51.38" rx="5.01" ry="5.01" transform="translate(31.53 -27.14) rotate(43.33)"/>
  </g>
</svg>